%TF.GenerationSoftware,KiCad,Pcbnew,10.0.4*%
%TF.CreationDate,2026-09-09T15:50:14-07:00*%
%TF.ProjectId,speed controller,73706565-6420-4636-9f6e-74726f6c6c65,rev?*%
%TF.SameCoordinates,Original*%
%TF.FileFunction,Legend,Top*%
%TF.FilePolarity,Positive*%
%FSLAX46Y46*%
G04 Gerber Fmt 4.6, Leading zero omitted, Abs format (unit mm)*
G04 Created by KiCad (PCBNEW 10.0.4) date 2026-09-09 15:50:14*
%MOMM*%
%LPD*%
G01*
G04 APERTURE LIST*
%ADD10C,0.100000*%
%ADD11C,0.150000*%
%ADD12C,0.120000*%
G04 APERTURE END LIST*
D10*
X96639761Y-84152657D02*
X96544523Y-84105038D01*
X96544523Y-84105038D02*
X96449285Y-84009800D01*
X96449285Y-84009800D02*
X96306428Y-83866942D01*
X96306428Y-83866942D02*
X96211190Y-83819323D01*
X96211190Y-83819323D02*
X96115952Y-83819323D01*
X96163571Y-84057419D02*
X96068333Y-84009800D01*
X96068333Y-84009800D02*
X95973095Y-83914561D01*
X95973095Y-83914561D02*
X95925476Y-83724085D01*
X95925476Y-83724085D02*
X95925476Y-83390752D01*
X95925476Y-83390752D02*
X95973095Y-83200276D01*
X95973095Y-83200276D02*
X96068333Y-83105038D01*
X96068333Y-83105038D02*
X96163571Y-83057419D01*
X96163571Y-83057419D02*
X96354047Y-83057419D01*
X96354047Y-83057419D02*
X96449285Y-83105038D01*
X96449285Y-83105038D02*
X96544523Y-83200276D01*
X96544523Y-83200276D02*
X96592142Y-83390752D01*
X96592142Y-83390752D02*
X96592142Y-83724085D01*
X96592142Y-83724085D02*
X96544523Y-83914561D01*
X96544523Y-83914561D02*
X96449285Y-84009800D01*
X96449285Y-84009800D02*
X96354047Y-84057419D01*
X96354047Y-84057419D02*
X96163571Y-84057419D01*
X97449285Y-83057419D02*
X97258809Y-83057419D01*
X97258809Y-83057419D02*
X97163571Y-83105038D01*
X97163571Y-83105038D02*
X97115952Y-83152657D01*
X97115952Y-83152657D02*
X97020714Y-83295514D01*
X97020714Y-83295514D02*
X96973095Y-83485990D01*
X96973095Y-83485990D02*
X96973095Y-83866942D01*
X96973095Y-83866942D02*
X97020714Y-83962180D01*
X97020714Y-83962180D02*
X97068333Y-84009800D01*
X97068333Y-84009800D02*
X97163571Y-84057419D01*
X97163571Y-84057419D02*
X97354047Y-84057419D01*
X97354047Y-84057419D02*
X97449285Y-84009800D01*
X97449285Y-84009800D02*
X97496904Y-83962180D01*
X97496904Y-83962180D02*
X97544523Y-83866942D01*
X97544523Y-83866942D02*
X97544523Y-83628847D01*
X97544523Y-83628847D02*
X97496904Y-83533609D01*
X97496904Y-83533609D02*
X97449285Y-83485990D01*
X97449285Y-83485990D02*
X97354047Y-83438371D01*
X97354047Y-83438371D02*
X97163571Y-83438371D01*
X97163571Y-83438371D02*
X97068333Y-83485990D01*
X97068333Y-83485990D02*
X97020714Y-83533609D01*
X97020714Y-83533609D02*
X96973095Y-83628847D01*
X92534761Y-84152657D02*
X92439523Y-84105038D01*
X92439523Y-84105038D02*
X92344285Y-84009800D01*
X92344285Y-84009800D02*
X92201428Y-83866942D01*
X92201428Y-83866942D02*
X92106190Y-83819323D01*
X92106190Y-83819323D02*
X92010952Y-83819323D01*
X92058571Y-84057419D02*
X91963333Y-84009800D01*
X91963333Y-84009800D02*
X91868095Y-83914561D01*
X91868095Y-83914561D02*
X91820476Y-83724085D01*
X91820476Y-83724085D02*
X91820476Y-83390752D01*
X91820476Y-83390752D02*
X91868095Y-83200276D01*
X91868095Y-83200276D02*
X91963333Y-83105038D01*
X91963333Y-83105038D02*
X92058571Y-83057419D01*
X92058571Y-83057419D02*
X92249047Y-83057419D01*
X92249047Y-83057419D02*
X92344285Y-83105038D01*
X92344285Y-83105038D02*
X92439523Y-83200276D01*
X92439523Y-83200276D02*
X92487142Y-83390752D01*
X92487142Y-83390752D02*
X92487142Y-83724085D01*
X92487142Y-83724085D02*
X92439523Y-83914561D01*
X92439523Y-83914561D02*
X92344285Y-84009800D01*
X92344285Y-84009800D02*
X92249047Y-84057419D01*
X92249047Y-84057419D02*
X92058571Y-84057419D01*
X93391904Y-83057419D02*
X92915714Y-83057419D01*
X92915714Y-83057419D02*
X92868095Y-83533609D01*
X92868095Y-83533609D02*
X92915714Y-83485990D01*
X92915714Y-83485990D02*
X93010952Y-83438371D01*
X93010952Y-83438371D02*
X93249047Y-83438371D01*
X93249047Y-83438371D02*
X93344285Y-83485990D01*
X93344285Y-83485990D02*
X93391904Y-83533609D01*
X93391904Y-83533609D02*
X93439523Y-83628847D01*
X93439523Y-83628847D02*
X93439523Y-83866942D01*
X93439523Y-83866942D02*
X93391904Y-83962180D01*
X93391904Y-83962180D02*
X93344285Y-84009800D01*
X93344285Y-84009800D02*
X93249047Y-84057419D01*
X93249047Y-84057419D02*
X93010952Y-84057419D01*
X93010952Y-84057419D02*
X92915714Y-84009800D01*
X92915714Y-84009800D02*
X92868095Y-83962180D01*
X88429761Y-84152657D02*
X88334523Y-84105038D01*
X88334523Y-84105038D02*
X88239285Y-84009800D01*
X88239285Y-84009800D02*
X88096428Y-83866942D01*
X88096428Y-83866942D02*
X88001190Y-83819323D01*
X88001190Y-83819323D02*
X87905952Y-83819323D01*
X87953571Y-84057419D02*
X87858333Y-84009800D01*
X87858333Y-84009800D02*
X87763095Y-83914561D01*
X87763095Y-83914561D02*
X87715476Y-83724085D01*
X87715476Y-83724085D02*
X87715476Y-83390752D01*
X87715476Y-83390752D02*
X87763095Y-83200276D01*
X87763095Y-83200276D02*
X87858333Y-83105038D01*
X87858333Y-83105038D02*
X87953571Y-83057419D01*
X87953571Y-83057419D02*
X88144047Y-83057419D01*
X88144047Y-83057419D02*
X88239285Y-83105038D01*
X88239285Y-83105038D02*
X88334523Y-83200276D01*
X88334523Y-83200276D02*
X88382142Y-83390752D01*
X88382142Y-83390752D02*
X88382142Y-83724085D01*
X88382142Y-83724085D02*
X88334523Y-83914561D01*
X88334523Y-83914561D02*
X88239285Y-84009800D01*
X88239285Y-84009800D02*
X88144047Y-84057419D01*
X88144047Y-84057419D02*
X87953571Y-84057419D01*
X89239285Y-83390752D02*
X89239285Y-84057419D01*
X89001190Y-83009800D02*
X88763095Y-83724085D01*
X88763095Y-83724085D02*
X89382142Y-83724085D01*
X96509761Y-66552657D02*
X96414523Y-66505038D01*
X96414523Y-66505038D02*
X96319285Y-66409800D01*
X96319285Y-66409800D02*
X96176428Y-66266942D01*
X96176428Y-66266942D02*
X96081190Y-66219323D01*
X96081190Y-66219323D02*
X95985952Y-66219323D01*
X96033571Y-66457419D02*
X95938333Y-66409800D01*
X95938333Y-66409800D02*
X95843095Y-66314561D01*
X95843095Y-66314561D02*
X95795476Y-66124085D01*
X95795476Y-66124085D02*
X95795476Y-65790752D01*
X95795476Y-65790752D02*
X95843095Y-65600276D01*
X95843095Y-65600276D02*
X95938333Y-65505038D01*
X95938333Y-65505038D02*
X96033571Y-65457419D01*
X96033571Y-65457419D02*
X96224047Y-65457419D01*
X96224047Y-65457419D02*
X96319285Y-65505038D01*
X96319285Y-65505038D02*
X96414523Y-65600276D01*
X96414523Y-65600276D02*
X96462142Y-65790752D01*
X96462142Y-65790752D02*
X96462142Y-66124085D01*
X96462142Y-66124085D02*
X96414523Y-66314561D01*
X96414523Y-66314561D02*
X96319285Y-66409800D01*
X96319285Y-66409800D02*
X96224047Y-66457419D01*
X96224047Y-66457419D02*
X96033571Y-66457419D01*
X96795476Y-65457419D02*
X97414523Y-65457419D01*
X97414523Y-65457419D02*
X97081190Y-65838371D01*
X97081190Y-65838371D02*
X97224047Y-65838371D01*
X97224047Y-65838371D02*
X97319285Y-65885990D01*
X97319285Y-65885990D02*
X97366904Y-65933609D01*
X97366904Y-65933609D02*
X97414523Y-66028847D01*
X97414523Y-66028847D02*
X97414523Y-66266942D01*
X97414523Y-66266942D02*
X97366904Y-66362180D01*
X97366904Y-66362180D02*
X97319285Y-66409800D01*
X97319285Y-66409800D02*
X97224047Y-66457419D01*
X97224047Y-66457419D02*
X96938333Y-66457419D01*
X96938333Y-66457419D02*
X96843095Y-66409800D01*
X96843095Y-66409800D02*
X96795476Y-66362180D01*
X92404761Y-66552657D02*
X92309523Y-66505038D01*
X92309523Y-66505038D02*
X92214285Y-66409800D01*
X92214285Y-66409800D02*
X92071428Y-66266942D01*
X92071428Y-66266942D02*
X91976190Y-66219323D01*
X91976190Y-66219323D02*
X91880952Y-66219323D01*
X91928571Y-66457419D02*
X91833333Y-66409800D01*
X91833333Y-66409800D02*
X91738095Y-66314561D01*
X91738095Y-66314561D02*
X91690476Y-66124085D01*
X91690476Y-66124085D02*
X91690476Y-65790752D01*
X91690476Y-65790752D02*
X91738095Y-65600276D01*
X91738095Y-65600276D02*
X91833333Y-65505038D01*
X91833333Y-65505038D02*
X91928571Y-65457419D01*
X91928571Y-65457419D02*
X92119047Y-65457419D01*
X92119047Y-65457419D02*
X92214285Y-65505038D01*
X92214285Y-65505038D02*
X92309523Y-65600276D01*
X92309523Y-65600276D02*
X92357142Y-65790752D01*
X92357142Y-65790752D02*
X92357142Y-66124085D01*
X92357142Y-66124085D02*
X92309523Y-66314561D01*
X92309523Y-66314561D02*
X92214285Y-66409800D01*
X92214285Y-66409800D02*
X92119047Y-66457419D01*
X92119047Y-66457419D02*
X91928571Y-66457419D01*
X92738095Y-65552657D02*
X92785714Y-65505038D01*
X92785714Y-65505038D02*
X92880952Y-65457419D01*
X92880952Y-65457419D02*
X93119047Y-65457419D01*
X93119047Y-65457419D02*
X93214285Y-65505038D01*
X93214285Y-65505038D02*
X93261904Y-65552657D01*
X93261904Y-65552657D02*
X93309523Y-65647895D01*
X93309523Y-65647895D02*
X93309523Y-65743133D01*
X93309523Y-65743133D02*
X93261904Y-65885990D01*
X93261904Y-65885990D02*
X92690476Y-66457419D01*
X92690476Y-66457419D02*
X93309523Y-66457419D01*
X88299761Y-66552657D02*
X88204523Y-66505038D01*
X88204523Y-66505038D02*
X88109285Y-66409800D01*
X88109285Y-66409800D02*
X87966428Y-66266942D01*
X87966428Y-66266942D02*
X87871190Y-66219323D01*
X87871190Y-66219323D02*
X87775952Y-66219323D01*
X87823571Y-66457419D02*
X87728333Y-66409800D01*
X87728333Y-66409800D02*
X87633095Y-66314561D01*
X87633095Y-66314561D02*
X87585476Y-66124085D01*
X87585476Y-66124085D02*
X87585476Y-65790752D01*
X87585476Y-65790752D02*
X87633095Y-65600276D01*
X87633095Y-65600276D02*
X87728333Y-65505038D01*
X87728333Y-65505038D02*
X87823571Y-65457419D01*
X87823571Y-65457419D02*
X88014047Y-65457419D01*
X88014047Y-65457419D02*
X88109285Y-65505038D01*
X88109285Y-65505038D02*
X88204523Y-65600276D01*
X88204523Y-65600276D02*
X88252142Y-65790752D01*
X88252142Y-65790752D02*
X88252142Y-66124085D01*
X88252142Y-66124085D02*
X88204523Y-66314561D01*
X88204523Y-66314561D02*
X88109285Y-66409800D01*
X88109285Y-66409800D02*
X88014047Y-66457419D01*
X88014047Y-66457419D02*
X87823571Y-66457419D01*
X89204523Y-66457419D02*
X88633095Y-66457419D01*
X88918809Y-66457419D02*
X88918809Y-65457419D01*
X88918809Y-65457419D02*
X88823571Y-65600276D01*
X88823571Y-65600276D02*
X88728333Y-65695514D01*
X88728333Y-65695514D02*
X88633095Y-65743133D01*
D11*
X141408333Y-86989819D02*
X141075000Y-86513628D01*
X140836905Y-86989819D02*
X140836905Y-85989819D01*
X140836905Y-85989819D02*
X141217857Y-85989819D01*
X141217857Y-85989819D02*
X141313095Y-86037438D01*
X141313095Y-86037438D02*
X141360714Y-86085057D01*
X141360714Y-86085057D02*
X141408333Y-86180295D01*
X141408333Y-86180295D02*
X141408333Y-86323152D01*
X141408333Y-86323152D02*
X141360714Y-86418390D01*
X141360714Y-86418390D02*
X141313095Y-86466009D01*
X141313095Y-86466009D02*
X141217857Y-86513628D01*
X141217857Y-86513628D02*
X140836905Y-86513628D01*
X141789286Y-86085057D02*
X141836905Y-86037438D01*
X141836905Y-86037438D02*
X141932143Y-85989819D01*
X141932143Y-85989819D02*
X142170238Y-85989819D01*
X142170238Y-85989819D02*
X142265476Y-86037438D01*
X142265476Y-86037438D02*
X142313095Y-86085057D01*
X142313095Y-86085057D02*
X142360714Y-86180295D01*
X142360714Y-86180295D02*
X142360714Y-86275533D01*
X142360714Y-86275533D02*
X142313095Y-86418390D01*
X142313095Y-86418390D02*
X141741667Y-86989819D01*
X141741667Y-86989819D02*
X142360714Y-86989819D01*
X141408333Y-88639819D02*
X141075000Y-88163628D01*
X140836905Y-88639819D02*
X140836905Y-87639819D01*
X140836905Y-87639819D02*
X141217857Y-87639819D01*
X141217857Y-87639819D02*
X141313095Y-87687438D01*
X141313095Y-87687438D02*
X141360714Y-87735057D01*
X141360714Y-87735057D02*
X141408333Y-87830295D01*
X141408333Y-87830295D02*
X141408333Y-87973152D01*
X141408333Y-87973152D02*
X141360714Y-88068390D01*
X141360714Y-88068390D02*
X141313095Y-88116009D01*
X141313095Y-88116009D02*
X141217857Y-88163628D01*
X141217857Y-88163628D02*
X140836905Y-88163628D01*
X141741667Y-87639819D02*
X142360714Y-87639819D01*
X142360714Y-87639819D02*
X142027381Y-88020771D01*
X142027381Y-88020771D02*
X142170238Y-88020771D01*
X142170238Y-88020771D02*
X142265476Y-88068390D01*
X142265476Y-88068390D02*
X142313095Y-88116009D01*
X142313095Y-88116009D02*
X142360714Y-88211247D01*
X142360714Y-88211247D02*
X142360714Y-88449342D01*
X142360714Y-88449342D02*
X142313095Y-88544580D01*
X142313095Y-88544580D02*
X142265476Y-88592200D01*
X142265476Y-88592200D02*
X142170238Y-88639819D01*
X142170238Y-88639819D02*
X141884524Y-88639819D01*
X141884524Y-88639819D02*
X141789286Y-88592200D01*
X141789286Y-88592200D02*
X141741667Y-88544580D01*
X127261905Y-99454819D02*
X127261905Y-98454819D01*
X127261905Y-98454819D02*
X127500000Y-98454819D01*
X127500000Y-98454819D02*
X127642857Y-98502438D01*
X127642857Y-98502438D02*
X127738095Y-98597676D01*
X127738095Y-98597676D02*
X127785714Y-98692914D01*
X127785714Y-98692914D02*
X127833333Y-98883390D01*
X127833333Y-98883390D02*
X127833333Y-99026247D01*
X127833333Y-99026247D02*
X127785714Y-99216723D01*
X127785714Y-99216723D02*
X127738095Y-99311961D01*
X127738095Y-99311961D02*
X127642857Y-99407200D01*
X127642857Y-99407200D02*
X127500000Y-99454819D01*
X127500000Y-99454819D02*
X127261905Y-99454819D01*
X128785714Y-99454819D02*
X128214286Y-99454819D01*
X128500000Y-99454819D02*
X128500000Y-98454819D01*
X128500000Y-98454819D02*
X128404762Y-98597676D01*
X128404762Y-98597676D02*
X128309524Y-98692914D01*
X128309524Y-98692914D02*
X128214286Y-98740533D01*
X144838095Y-91104819D02*
X144838095Y-91914342D01*
X144838095Y-91914342D02*
X144885714Y-92009580D01*
X144885714Y-92009580D02*
X144933333Y-92057200D01*
X144933333Y-92057200D02*
X145028571Y-92104819D01*
X145028571Y-92104819D02*
X145219047Y-92104819D01*
X145219047Y-92104819D02*
X145314285Y-92057200D01*
X145314285Y-92057200D02*
X145361904Y-92009580D01*
X145361904Y-92009580D02*
X145409523Y-91914342D01*
X145409523Y-91914342D02*
X145409523Y-91104819D01*
X146314285Y-91438152D02*
X146314285Y-92104819D01*
X146076190Y-91057200D02*
X145838095Y-91771485D01*
X145838095Y-91771485D02*
X146457142Y-91771485D01*
X125828095Y-93914819D02*
X125828095Y-94724342D01*
X125828095Y-94724342D02*
X125875714Y-94819580D01*
X125875714Y-94819580D02*
X125923333Y-94867200D01*
X125923333Y-94867200D02*
X126018571Y-94914819D01*
X126018571Y-94914819D02*
X126209047Y-94914819D01*
X126209047Y-94914819D02*
X126304285Y-94867200D01*
X126304285Y-94867200D02*
X126351904Y-94819580D01*
X126351904Y-94819580D02*
X126399523Y-94724342D01*
X126399523Y-94724342D02*
X126399523Y-93914819D01*
X126780476Y-93914819D02*
X127399523Y-93914819D01*
X127399523Y-93914819D02*
X127066190Y-94295771D01*
X127066190Y-94295771D02*
X127209047Y-94295771D01*
X127209047Y-94295771D02*
X127304285Y-94343390D01*
X127304285Y-94343390D02*
X127351904Y-94391009D01*
X127351904Y-94391009D02*
X127399523Y-94486247D01*
X127399523Y-94486247D02*
X127399523Y-94724342D01*
X127399523Y-94724342D02*
X127351904Y-94819580D01*
X127351904Y-94819580D02*
X127304285Y-94867200D01*
X127304285Y-94867200D02*
X127209047Y-94914819D01*
X127209047Y-94914819D02*
X126923333Y-94914819D01*
X126923333Y-94914819D02*
X126828095Y-94867200D01*
X126828095Y-94867200D02*
X126780476Y-94819580D01*
X130413095Y-77979819D02*
X130413095Y-78789342D01*
X130413095Y-78789342D02*
X130460714Y-78884580D01*
X130460714Y-78884580D02*
X130508333Y-78932200D01*
X130508333Y-78932200D02*
X130603571Y-78979819D01*
X130603571Y-78979819D02*
X130794047Y-78979819D01*
X130794047Y-78979819D02*
X130889285Y-78932200D01*
X130889285Y-78932200D02*
X130936904Y-78884580D01*
X130936904Y-78884580D02*
X130984523Y-78789342D01*
X130984523Y-78789342D02*
X130984523Y-77979819D01*
X131984523Y-78979819D02*
X131413095Y-78979819D01*
X131698809Y-78979819D02*
X131698809Y-77979819D01*
X131698809Y-77979819D02*
X131603571Y-78122676D01*
X131603571Y-78122676D02*
X131508333Y-78217914D01*
X131508333Y-78217914D02*
X131413095Y-78265533D01*
X130463095Y-79279819D02*
X130463095Y-80089342D01*
X130463095Y-80089342D02*
X130510714Y-80184580D01*
X130510714Y-80184580D02*
X130558333Y-80232200D01*
X130558333Y-80232200D02*
X130653571Y-80279819D01*
X130653571Y-80279819D02*
X130844047Y-80279819D01*
X130844047Y-80279819D02*
X130939285Y-80232200D01*
X130939285Y-80232200D02*
X130986904Y-80184580D01*
X130986904Y-80184580D02*
X131034523Y-80089342D01*
X131034523Y-80089342D02*
X131034523Y-79279819D01*
X131463095Y-79375057D02*
X131510714Y-79327438D01*
X131510714Y-79327438D02*
X131605952Y-79279819D01*
X131605952Y-79279819D02*
X131844047Y-79279819D01*
X131844047Y-79279819D02*
X131939285Y-79327438D01*
X131939285Y-79327438D02*
X131986904Y-79375057D01*
X131986904Y-79375057D02*
X132034523Y-79470295D01*
X132034523Y-79470295D02*
X132034523Y-79565533D01*
X132034523Y-79565533D02*
X131986904Y-79708390D01*
X131986904Y-79708390D02*
X131415476Y-80279819D01*
X131415476Y-80279819D02*
X132034523Y-80279819D01*
X144134524Y-80444819D02*
X144134524Y-79444819D01*
X144563095Y-80444819D02*
X144563095Y-79921009D01*
X144563095Y-79921009D02*
X144515476Y-79825771D01*
X144515476Y-79825771D02*
X144420238Y-79778152D01*
X144420238Y-79778152D02*
X144277381Y-79778152D01*
X144277381Y-79778152D02*
X144182143Y-79825771D01*
X144182143Y-79825771D02*
X144134524Y-79873390D01*
X145563095Y-80444819D02*
X144991667Y-80444819D01*
X145277381Y-80444819D02*
X145277381Y-79444819D01*
X145277381Y-79444819D02*
X145182143Y-79587676D01*
X145182143Y-79587676D02*
X145086905Y-79682914D01*
X145086905Y-79682914D02*
X144991667Y-79730533D01*
X127331905Y-104909819D02*
X127331905Y-103909819D01*
X127331905Y-103909819D02*
X127570000Y-103909819D01*
X127570000Y-103909819D02*
X127712857Y-103957438D01*
X127712857Y-103957438D02*
X127808095Y-104052676D01*
X127808095Y-104052676D02*
X127855714Y-104147914D01*
X127855714Y-104147914D02*
X127903333Y-104338390D01*
X127903333Y-104338390D02*
X127903333Y-104481247D01*
X127903333Y-104481247D02*
X127855714Y-104671723D01*
X127855714Y-104671723D02*
X127808095Y-104766961D01*
X127808095Y-104766961D02*
X127712857Y-104862200D01*
X127712857Y-104862200D02*
X127570000Y-104909819D01*
X127570000Y-104909819D02*
X127331905Y-104909819D01*
X128236667Y-103909819D02*
X128855714Y-103909819D01*
X128855714Y-103909819D02*
X128522381Y-104290771D01*
X128522381Y-104290771D02*
X128665238Y-104290771D01*
X128665238Y-104290771D02*
X128760476Y-104338390D01*
X128760476Y-104338390D02*
X128808095Y-104386009D01*
X128808095Y-104386009D02*
X128855714Y-104481247D01*
X128855714Y-104481247D02*
X128855714Y-104719342D01*
X128855714Y-104719342D02*
X128808095Y-104814580D01*
X128808095Y-104814580D02*
X128760476Y-104862200D01*
X128760476Y-104862200D02*
X128665238Y-104909819D01*
X128665238Y-104909819D02*
X128379524Y-104909819D01*
X128379524Y-104909819D02*
X128284286Y-104862200D01*
X128284286Y-104862200D02*
X128236667Y-104814580D01*
D10*
X123761905Y-80957419D02*
X123761905Y-79957419D01*
X123761905Y-79957419D02*
X124142857Y-79957419D01*
X124142857Y-79957419D02*
X124238095Y-80005038D01*
X124238095Y-80005038D02*
X124285714Y-80052657D01*
X124285714Y-80052657D02*
X124333333Y-80147895D01*
X124333333Y-80147895D02*
X124333333Y-80290752D01*
X124333333Y-80290752D02*
X124285714Y-80385990D01*
X124285714Y-80385990D02*
X124238095Y-80433609D01*
X124238095Y-80433609D02*
X124142857Y-80481228D01*
X124142857Y-80481228D02*
X123761905Y-80481228D01*
X125285714Y-80957419D02*
X124714286Y-80957419D01*
X125000000Y-80957419D02*
X125000000Y-79957419D01*
X125000000Y-79957419D02*
X124904762Y-80100276D01*
X124904762Y-80100276D02*
X124809524Y-80195514D01*
X124809524Y-80195514D02*
X124714286Y-80243133D01*
X121803884Y-85991466D02*
X122565789Y-85991466D01*
X122184836Y-86372419D02*
X122184836Y-85610514D01*
X121803884Y-93991466D02*
X122565789Y-93991466D01*
%TO.C,D1*%
D12*
X124490000Y-99850000D02*
X124490000Y-103150000D01*
X124490000Y-99850000D02*
X130000000Y-99850000D01*
X124490000Y-103150000D02*
X130000000Y-103150000D01*
%TO.C,U4*%
X143990000Y-92490000D02*
X147210000Y-92490000D01*
X143990000Y-92715000D02*
X143990000Y-92490000D01*
X143990000Y-95710000D02*
X143990000Y-95485000D01*
X147210000Y-92490000D02*
X147210000Y-92715000D01*
X147210000Y-95485000D02*
X147210000Y-95710000D01*
X147210000Y-95710000D02*
X143990000Y-95710000D01*
X143460000Y-93120000D02*
X143130000Y-93360000D01*
X143130000Y-92880000D01*
X143460000Y-93120000D01*
G36*
X143460000Y-93120000D02*
G01*
X143130000Y-93360000D01*
X143130000Y-92880000D01*
X143460000Y-93120000D01*
G37*
%TO.C,U3*%
X125200000Y-95220000D02*
X127200000Y-95220000D01*
X125210000Y-97500000D02*
X127210000Y-97500000D01*
X124840000Y-95290000D02*
X124560000Y-95290000D01*
X124840000Y-95010000D01*
X124840000Y-95290000D01*
G36*
X124840000Y-95290000D02*
G01*
X124560000Y-95290000D01*
X124840000Y-95010000D01*
X124840000Y-95290000D01*
G37*
%TO.C,U1*%
X127565000Y-70220000D02*
X127565000Y-70705000D01*
X127570000Y-76945000D02*
X127570000Y-77435000D01*
X128055000Y-70220000D02*
X127565000Y-70220000D01*
X128060000Y-77435000D02*
X127570000Y-77435000D01*
X134295000Y-70215000D02*
X134785000Y-70215000D01*
X134295000Y-77435000D02*
X134495000Y-77435000D01*
X134785000Y-70215000D02*
X134785000Y-70705000D01*
X134785000Y-77205000D02*
X134785000Y-76945000D01*
X134795000Y-77445000D02*
X135035000Y-77775000D01*
X134555000Y-77775000D01*
X134795000Y-77445000D01*
G36*
X135035000Y-77775000D02*
G01*
X134555000Y-77775000D01*
X134795000Y-77445000D01*
X135035000Y-77775000D01*
G37*
%TO.C,U2*%
X126115000Y-82115000D02*
X127065000Y-82115000D01*
X126115000Y-83065000D02*
X126115000Y-82115000D01*
X126115000Y-92335000D02*
X126115000Y-91385000D01*
X127065000Y-92335000D02*
X126115000Y-92335000D01*
X135385000Y-82115000D02*
X136335000Y-82115000D01*
X136335000Y-82115000D02*
X136335000Y-83065000D01*
X136335000Y-91385000D02*
X136335000Y-92335000D01*
X136335000Y-92335000D02*
X135385000Y-92335000D01*
X125475000Y-83065000D02*
X125135000Y-82595000D01*
X125815000Y-82595000D01*
X125475000Y-83065000D01*
G36*
X125475000Y-83065000D02*
G01*
X125135000Y-82595000D01*
X125815000Y-82595000D01*
X125475000Y-83065000D01*
G37*
%TO.C,h1*%
X142515000Y-80830000D02*
X147135000Y-80830000D01*
X142515000Y-81030000D02*
X142515000Y-80830000D01*
X142515000Y-86050000D02*
X142515000Y-85850000D01*
X147135000Y-80830000D02*
X147135000Y-81030000D01*
X147135000Y-85850000D02*
X147135000Y-86050000D01*
X147135000Y-86050000D02*
X142515000Y-86050000D01*
X141875000Y-81030000D02*
X141535000Y-80560000D01*
X142215000Y-80560000D01*
X141875000Y-81030000D01*
G36*
X141875000Y-81030000D02*
G01*
X141535000Y-80560000D01*
X142215000Y-80560000D01*
X141875000Y-81030000D01*
G37*
%TO.C,D3*%
X124560000Y-105305000D02*
X124560000Y-108605000D01*
X124560000Y-105305000D02*
X130070000Y-105305000D01*
X124560000Y-108605000D02*
X130070000Y-108605000D01*
%TD*%
M02*
