%TF.GenerationSoftware,KiCad,Pcbnew,10.0.4*%
%TF.CreationDate,2026-09-09T15:50:14-07:00*%
%TF.ProjectId,speed controller,73706565-6420-4636-9f6e-74726f6c6c65,rev?*%
%TF.SameCoordinates,Original*%
%TF.FileFunction,Soldermask,Top*%
%TF.FilePolarity,Negative*%
%FSLAX46Y46*%
G04 Gerber Fmt 4.6, Leading zero omitted, Abs format (unit mm)*
G04 Created by KiCad (PCBNEW 10.0.4) date 2026-09-09 15:50:14*
%MOMM*%
%LPD*%
G01*
G04 APERTURE LIST*
G04 Aperture macros list*
%AMRoundRect*
0 Rectangle with rounded corners*
0 $1 Rounding radius*
0 $2 $3 $4 $5 $6 $7 $8 $9 X,Y pos of 4 corners*
0 Add a 4 corners polygon primitive as box body*
4,1,4,$2,$3,$4,$5,$6,$7,$8,$9,$2,$3,0*
0 Add four circle primitives for the rounded corners*
1,1,$1+$1,$2,$3*
1,1,$1+$1,$4,$5*
1,1,$1+$1,$6,$7*
1,1,$1+$1,$8,$9*
0 Add four rect primitives between the rounded corners*
20,1,$1+$1,$2,$3,$4,$5,0*
20,1,$1+$1,$4,$5,$6,$7,0*
20,1,$1+$1,$6,$7,$8,$9,0*
20,1,$1+$1,$8,$9,$2,$3,0*%
%AMFreePoly0*
4,1,6,2.575000,-2.575000,-2.574800,-2.575000,-2.574800,2.207000,-2.207200,2.575000,2.575000,2.575000,2.575000,-2.575000,2.575000,-2.575000,$1*%
G04 Aperture macros list end*
%ADD10R,1.100000X0.450000*%
%ADD11R,0.350000X0.800000*%
%ADD12R,0.325000X0.800000*%
%ADD13R,2.300000X0.350000*%
%ADD14R,2.410000X0.985000*%
%ADD15R,1.680000X0.900000*%
%ADD16RoundRect,0.075000X-0.125000X-0.075000X0.125000X-0.075000X0.125000X0.075000X-0.125000X0.075000X0*%
%ADD17RoundRect,0.250000X-1.000000X-0.650000X1.000000X-0.650000X1.000000X0.650000X-1.000000X0.650000X0*%
%ADD18RoundRect,0.075000X-0.350000X-0.075000X0.350000X-0.075000X0.350000X0.075000X-0.350000X0.075000X0*%
%ADD19R,1.600000X2.400000*%
%ADD20RoundRect,0.062500X-0.187500X-0.062500X0.187500X-0.062500X0.187500X0.062500X-0.187500X0.062500X0*%
%ADD21R,0.900000X1.600000*%
%ADD22R,0.650000X0.220000*%
%ADD23R,0.220000X0.650000*%
%ADD24FreePoly0,180.000000*%
%ADD25RoundRect,0.075000X-0.700000X-0.075000X0.700000X-0.075000X0.700000X0.075000X-0.700000X0.075000X0*%
%ADD26RoundRect,0.075000X-0.075000X-0.700000X0.075000X-0.700000X0.075000X0.700000X-0.075000X0.700000X0*%
%ADD27RoundRect,0.100000X-0.637500X-0.100000X0.637500X-0.100000X0.637500X0.100000X-0.637500X0.100000X0*%
%ADD28RoundRect,0.250000X-2.250000X-2.250000X2.250000X-2.250000X2.250000X2.250000X-2.250000X2.250000X0*%
G04 APERTURE END LIST*
D10*
%TO.C,Q6*%
X102385000Y-87205000D03*
D11*
X102760000Y-86100000D03*
D12*
X103410000Y-86100000D03*
D13*
X103735000Y-86325000D03*
D12*
X104035000Y-86100000D03*
D11*
X104710000Y-86100000D03*
X102760000Y-89100000D03*
D12*
X103410000Y-89100000D03*
D14*
X103735000Y-88307500D03*
D12*
X104060000Y-89100000D03*
D15*
X104100000Y-87600000D03*
D11*
X104710000Y-89100000D03*
%TD*%
D10*
%TO.C,Q5*%
X98280000Y-87205000D03*
D11*
X98655000Y-86100000D03*
D12*
X99305000Y-86100000D03*
D13*
X99630000Y-86325000D03*
D12*
X99930000Y-86100000D03*
D11*
X100605000Y-86100000D03*
X98655000Y-89100000D03*
D12*
X99305000Y-89100000D03*
D14*
X99630000Y-88307500D03*
D12*
X99955000Y-89100000D03*
D15*
X99995000Y-87600000D03*
D11*
X100605000Y-89100000D03*
%TD*%
D10*
%TO.C,Q4*%
X94175000Y-87205000D03*
D11*
X94550000Y-86100000D03*
D12*
X95200000Y-86100000D03*
D13*
X95525000Y-86325000D03*
D12*
X95825000Y-86100000D03*
D11*
X96500000Y-86100000D03*
X94550000Y-89100000D03*
D12*
X95200000Y-89100000D03*
D14*
X95525000Y-88307500D03*
D12*
X95850000Y-89100000D03*
D15*
X95890000Y-87600000D03*
D11*
X96500000Y-89100000D03*
%TD*%
D10*
%TO.C,Q3*%
X102255000Y-69605000D03*
D11*
X102630000Y-68500000D03*
D12*
X103280000Y-68500000D03*
D13*
X103605000Y-68725000D03*
D12*
X103905000Y-68500000D03*
D11*
X104580000Y-68500000D03*
X102630000Y-71500000D03*
D12*
X103280000Y-71500000D03*
D14*
X103605000Y-70707500D03*
D12*
X103930000Y-71500000D03*
D15*
X103970000Y-70000000D03*
D11*
X104580000Y-71500000D03*
%TD*%
D10*
%TO.C,Q2*%
X98150000Y-69605000D03*
D11*
X98525000Y-68500000D03*
D12*
X99175000Y-68500000D03*
D13*
X99500000Y-68725000D03*
D12*
X99800000Y-68500000D03*
D11*
X100475000Y-68500000D03*
X98525000Y-71500000D03*
D12*
X99175000Y-71500000D03*
D14*
X99500000Y-70707500D03*
D12*
X99825000Y-71500000D03*
D15*
X99865000Y-70000000D03*
D11*
X100475000Y-71500000D03*
%TD*%
D10*
%TO.C,Q1*%
X94045000Y-69605000D03*
D11*
X94420000Y-68500000D03*
D12*
X95070000Y-68500000D03*
D13*
X95395000Y-68725000D03*
D12*
X95695000Y-68500000D03*
D11*
X96370000Y-68500000D03*
X94420000Y-71500000D03*
D12*
X95070000Y-71500000D03*
D14*
X95395000Y-70707500D03*
D12*
X95720000Y-71500000D03*
D15*
X95760000Y-70000000D03*
D11*
X96370000Y-71500000D03*
%TD*%
D16*
%TO.C,R2*%
X141325000Y-87535000D03*
X141825000Y-87535000D03*
%TD*%
%TO.C,R3*%
X141325000Y-89185000D03*
X141825000Y-89185000D03*
%TD*%
D17*
%TO.C,D1*%
X126000000Y-101500000D03*
X130000000Y-101500000D03*
%TD*%
D18*
%TO.C,U4*%
X144150000Y-93125000D03*
X144150000Y-93775000D03*
X144150000Y-94425000D03*
X144150000Y-95075000D03*
X147050000Y-95075000D03*
X147050000Y-94425000D03*
X147050000Y-93775000D03*
X147050000Y-93125000D03*
D19*
X145600000Y-94100000D03*
%TD*%
D20*
%TO.C,U3*%
X125260000Y-95610000D03*
X125260000Y-96110000D03*
X125260000Y-96610000D03*
X125260000Y-97110000D03*
X127160000Y-97110000D03*
X127160000Y-96610000D03*
X127160000Y-96110000D03*
X127160000Y-95610000D03*
D21*
X126210000Y-96360000D03*
%TD*%
D22*
%TO.C,U1*%
X134600000Y-76575000D03*
X134600000Y-76075000D03*
X134600000Y-75575000D03*
X134600000Y-75075000D03*
X134600000Y-74575000D03*
X134600000Y-74075000D03*
X134600000Y-73575000D03*
X134600000Y-73075000D03*
X134600000Y-72575000D03*
X134600000Y-72075000D03*
X134600000Y-71575000D03*
X134600000Y-71075000D03*
D23*
X133925000Y-70400000D03*
X133425000Y-70400000D03*
X132925000Y-70400000D03*
X132425000Y-70400000D03*
X131925000Y-70400000D03*
X131425000Y-70400000D03*
X130925000Y-70400000D03*
X130425000Y-70400000D03*
X129925000Y-70400000D03*
X129425000Y-70400000D03*
X128925000Y-70400000D03*
X128425000Y-70400000D03*
D22*
X127750000Y-71075000D03*
X127750000Y-71575000D03*
X127750000Y-72075000D03*
X127750000Y-72575000D03*
X127750000Y-73075000D03*
X127750000Y-73575000D03*
X127750000Y-74075000D03*
X127750000Y-74575000D03*
X127750000Y-75075000D03*
X127750000Y-75575000D03*
X127750000Y-76075000D03*
X127750000Y-76575000D03*
D23*
X128425000Y-77250000D03*
X128925000Y-77250000D03*
X129425000Y-77250000D03*
X129925000Y-77250000D03*
X130425000Y-77250000D03*
X130925000Y-77250000D03*
X131425000Y-77250000D03*
X131925000Y-77250000D03*
X132425000Y-77250000D03*
X132925000Y-77250000D03*
X133425000Y-77250000D03*
X133925000Y-77250000D03*
D24*
X131175000Y-73825000D03*
%TD*%
D25*
%TO.C,U2*%
X125550000Y-83475000D03*
X125550000Y-83975000D03*
X125550000Y-84475000D03*
X125550000Y-84975000D03*
X125550000Y-85475000D03*
X125550000Y-85975000D03*
X125550000Y-86475000D03*
X125550000Y-86975000D03*
X125550000Y-87475000D03*
X125550000Y-87975000D03*
X125550000Y-88475000D03*
X125550000Y-88975000D03*
X125550000Y-89475000D03*
X125550000Y-89975000D03*
X125550000Y-90475000D03*
X125550000Y-90975000D03*
D26*
X127475000Y-92900000D03*
X127975000Y-92900000D03*
X128475000Y-92900000D03*
X128975000Y-92900000D03*
X129475000Y-92900000D03*
X129975000Y-92900000D03*
X130475000Y-92900000D03*
X130975000Y-92900000D03*
X131475000Y-92900000D03*
X131975000Y-92900000D03*
X132475000Y-92900000D03*
X132975000Y-92900000D03*
X133475000Y-92900000D03*
X133975000Y-92900000D03*
X134475000Y-92900000D03*
X134975000Y-92900000D03*
D25*
X136900000Y-90975000D03*
X136900000Y-90475000D03*
X136900000Y-89975000D03*
X136900000Y-89475000D03*
X136900000Y-88975000D03*
X136900000Y-88475000D03*
X136900000Y-87975000D03*
X136900000Y-87475000D03*
X136900000Y-86975000D03*
X136900000Y-86475000D03*
X136900000Y-85975000D03*
X136900000Y-85475000D03*
X136900000Y-84975000D03*
X136900000Y-84475000D03*
X136900000Y-83975000D03*
X136900000Y-83475000D03*
D26*
X134975000Y-81550000D03*
X134475000Y-81550000D03*
X133975000Y-81550000D03*
X133475000Y-81550000D03*
X132975000Y-81550000D03*
X132475000Y-81550000D03*
X131975000Y-81550000D03*
X131475000Y-81550000D03*
X130975000Y-81550000D03*
X130475000Y-81550000D03*
X129975000Y-81550000D03*
X129475000Y-81550000D03*
X128975000Y-81550000D03*
X128475000Y-81550000D03*
X127975000Y-81550000D03*
X127475000Y-81550000D03*
%TD*%
D27*
%TO.C,h1*%
X141962500Y-81490000D03*
X141962500Y-82140000D03*
X141962500Y-82790000D03*
X141962500Y-83440000D03*
X141962500Y-84090000D03*
X141962500Y-84740000D03*
X141962500Y-85390000D03*
X147687500Y-85390000D03*
X147687500Y-84740000D03*
X147687500Y-84090000D03*
X147687500Y-83440000D03*
X147687500Y-82790000D03*
X147687500Y-82140000D03*
X147687500Y-81490000D03*
%TD*%
D17*
%TO.C,D3*%
X126070000Y-106955000D03*
X130070000Y-106955000D03*
%TD*%
D28*
%TO.C,P1*%
X119000000Y-83000000D03*
X119000000Y-97500000D03*
%TD*%
M02*
